<svg width="294.83999023437497px" height="141.239990234375px" xmlns="http://www.w3.org/2000/svg" viewBox="102.58000488281252 4.3800048828125 294.83999023437497 141.239990234375" style="background: rgba(0, 0, 0, 0) none repeat scroll 0% 0%;" preserveAspectRatio="xMidYMid"><defs><linearGradient id="editing-outline-gradient" x1="-0.41354545764260087" x2="1.4135454576426008" y1="0.09326335692419985" y2="0.9067366430758002"><stop offset="0" stop-color="#ee4208"></stop><stop offset="1" stop-color="#4139ff"></stop></linearGradient><filter id="editing-outline" x="-100%" y="-100%" width="300%" height="300%"><feMorphology in="SourceGraphic" operator="dilate" radius="1" result="outline"></feMorphology><feComposite operator="out" in="outline" in2="SourceAlpha"></feComposite></filter></defs><g filter="url(#editing-outline)"><g transform="translate(152.2226418852806, 97.05000114440918)"><path d="M21.25 0.64L21.06 0.19L21.31-2.30L21.31-2.30Q24.58-2.56 25.79-3.07L25.79-3.07L25.79-3.07Q27.01-3.58 27.01-4.74L27.01-4.74L27.01-4.74Q27.01-6.02 26.43-7.81L26.43-7.81L24.32-14.78L24.32-14.78Q22.78-14.85 17.66-14.85L17.66-14.85L17.66-14.85Q14.59-14.85 10.69-14.34L10.69-14.34L8.32-7.68L8.32-7.68Q7.74-5.95 7.74-5.18L7.74-5.18L7.74-5.18Q7.74-3.78 8.64-3.17L8.64-3.17L8.64-3.17Q9.54-2.56 11.58-2.56L11.58-2.56L15.23-2.56L15.36-2.30L14.98 0.45L14.98 0.45Q14.21 0.38 11.46 0.19L11.46 0.19L11.46 0.19Q8.70 0 6.08 0L6.08 0L6.08 0Q3.71 0 1.70 0.06L1.70 0.06L1.70 0.06Q-0.32 0.13-0.96 0.19L-0.96 0.19L-0.45-2.82L-0.45-2.82Q1.34-3.01 2.43-4.06L2.43-4.06L2.43-4.06Q3.52-5.12 4.54-7.74L4.54-7.74L17.02-40.45L21.06-41.54L21.57-41.54L21.57-41.54Q21.95-40 23.52-34.43L23.52-34.43L23.52-34.43Q25.09-28.86 27.36-21.25L27.36-21.25L27.36-21.25Q29.63-13.63 31.74-7.23L31.74-7.23L31.74-7.23Q32.51-4.86 33.79-3.90L33.79-3.90L33.79-3.90Q35.07-2.94 37.89-2.69L37.89-2.69L38.02-2.43L37.57 0.19L37.57 0.19Q36.80 0.19 34.78 0.10L34.78 0.10L34.78 0.10Q32.77 0 30.78 0L30.78 0L30.78 0Q27.71 0 24.86 0.26L24.86 0.26L24.86 0.26Q22.02 0.51 21.25 0.64L21.25 0.64ZM11.84-17.47L17.47-17.47L17.47-17.47Q19.78-17.47 23.42-17.79L23.42-17.79L18.37-34.56L17.92-34.56L11.84-17.47ZM73.86 2.56L73.86 2.56Q68.29-6.08 63.01-13.92L63.01-13.92L63.01-13.92Q57.73-21.76 54.34-26.59L54.34-26.59L54.34-26.59Q50.94-31.42 50.05-32.70L50.05-32.70L49.73-32.70L49.41-5.38L49.41-5.38Q49.41-3.97 49.86-3.39L49.86-3.39L49.86-3.39Q50.30-2.82 51.39-2.82L51.39-2.82L54.66-2.88L54.78-2.62L54.21 0.26L54.21 0.26Q53.50 0.19 51.33 0.10L51.33 0.10L51.33 0.10Q49.15 0 47.42 0L47.42 0L47.42 0Q45.82 0 43.94 0.22L43.94 0.22L43.94 0.22Q42.05 0.45 41.47 0.51L41.47 0.51L41.79-2.43L41.79-2.43Q43.78-2.69 44.74-3.62L44.74-3.62L44.74-3.62Q45.70-4.54 45.76-6.46L45.76-6.46L46.59-34.43L46.59-34.43Q46.59-36.42 45.41-37.25L45.41-37.25L45.41-37.25Q44.22-38.08 41.02-38.40L41.02-38.40L40.83-38.72L41.34-41.09L41.34-41.09Q41.92-41.02 43.84-40.90L43.84-40.90L43.84-40.90Q45.76-40.77 46.85-40.77L46.85-40.77L46.85-40.77Q48.19-40.77 49.47-40.86L49.47-40.86L49.47-40.86Q50.75-40.96 51.14-41.02L51.14-41.02L51.14-41.02Q55.87-33.66 60.64-26.62L60.64-26.62L60.64-26.62Q65.41-19.58 68.61-15.04L68.61-15.04L68.61-15.04Q71.81-10.50 72.64-9.28L72.64-9.28L72.96-9.28L72.96-35.20L72.96-35.20Q72.96-37.95 70.85-37.95L70.85-37.95L68.42-37.89L68.29-38.14L68.86-41.02L68.86-41.02Q69.50-40.96 71.30-40.86L71.30-40.86L71.30-40.86Q73.09-40.77 74.94-40.77L74.94-40.77L74.94-40.77Q76.61-40.77 78.62-40.99L78.62-40.99L78.62-40.99Q80.64-41.22 81.28-41.28L81.28-41.28L80.96-38.34L80.96-38.34Q78.72-38.02 77.70-37.09L77.70-37.09L77.70-37.09Q76.67-36.16 76.61-34.30L76.61-34.30L75.71 1.66L73.86 2.56ZM86.98 0.77L87.36-2.18L87.36-2.18Q90.37-2.75 91.42-3.87L91.42-3.87L91.42-3.87Q92.48-4.99 92.48-7.68L92.48-7.68L92.54-34.56L92.54-34.56Q92.54-36.61 92.06-37.31L92.06-37.31L92.06-37.31Q91.58-38.02 90.18-38.02L90.18-38.02L87.49-37.89L87.36-38.14L87.81-40.96L87.81-40.96Q88.83-40.96 89.41-40.90L89.41-40.90L95.42-40.77L95.42-40.77Q98.30-40.77 102.78-41.34L102.78-41.34L102.53-38.46L102.53-38.46Q99.90-38.14 98.98-37.41L98.98-37.41L98.98-37.41Q98.05-36.67 97.92-34.82L97.92-34.82L97.92-34.82Q97.54-27.33 97.28-19.17L97.28-19.17L97.28-19.17Q97.02-11.01 97.02-7.17L97.02-7.17L97.02-7.17Q97.02-4.54 97.60-3.68L97.60-3.68L97.60-3.68Q98.18-2.82 99.84-2.82L99.84-2.82L99.84-2.82Q100.93-2.82 103.23-3.01L103.23-3.01L103.36-2.75L102.78 0.19L102.78 0.19Q101.89 0.19 101.38 0.13L101.38 0.13L101.38 0.13Q96.90 0 94.40 0L94.40 0L94.40 0Q91.26 0 86.98 0.77L86.98 0.77ZM131.90 1.22L119.62-33.28L119.30-33.28L119.30-33.28Q118.91-29.06 117.95-17.44L117.95-17.44L117.95-17.44Q116.99-5.82 116.99-4.80L116.99-4.80L116.99-4.80Q116.99-2.82 118.98-2.82L118.98-2.82L121.60-2.88L121.73-2.62L121.15 0.26L121.15 0.26Q120.45 0.19 118.62 0.10L118.62 0.10L118.62 0.10Q116.80 0 114.94 0L114.94 0L114.94 0Q113.34 0 111.65 0.22L111.65 0.22L111.65 0.22Q109.95 0.45 109.44 0.51L109.44 0.51L109.76-2.43L109.76-2.43Q111.81-2.69 112.70-3.74L112.70-3.74L112.70-3.74Q113.60-4.80 113.86-7.36L113.86-7.36L113.86-7.36Q114.50-13.38 115.55-23.58L115.55-23.58L115.55-23.58Q116.61-33.79 116.61-35.01L116.61-35.01L116.61-35.01Q116.61-36.67 115.30-37.50L115.30-37.50L115.30-37.50Q113.98-38.34 111.10-38.53L111.10-38.53L110.91-38.85L111.42-41.09L111.42-41.09Q112.26-41.02 114.69-40.90L114.69-40.90L114.69-40.90Q117.12-40.77 118.40-40.77L118.40-40.77L118.40-40.77Q119.55-40.77 120.93-40.86L120.93-40.86L120.93-40.86Q122.30-40.96 122.75-41.02L122.75-41.02L122.75-41.02Q125.31-32.77 127.71-25.70L127.71-25.70L127.71-25.70Q130.11-18.62 131.65-14.46L131.65-14.46L131.65-14.46Q133.18-10.30 133.57-9.28L133.57-9.28L133.89-9.28L133.89-9.28Q134.78-11.65 137.98-20.54L137.98-20.54L137.98-20.54Q141.18-29.44 144.96-40.90L144.96-40.90L144.96-40.90Q144.96-40.96 146.69-40.83L146.69-40.83L149.18-40.77L149.18-40.77Q150.40-40.77 152.83-40.93L152.83-40.93L152.83-40.93Q155.26-41.09 156.10-41.15L156.10-41.15L156.22-40.90L155.90-38.53L155.90-38.53Q153.15-38.21 152-37.41L152-37.41L152-37.41Q150.85-36.61 150.85-35.01L150.85-35.01L150.85-35.01Q150.85-33.60 151.42-24.54L151.42-24.54L151.42-24.54Q152-15.49 152.51-8.90L152.51-8.90L152.51-8.90Q152.83-6.27 153.15-5.02L153.15-5.02L153.15-5.02Q153.47-3.78 154.05-3.30L154.05-3.30L154.05-3.30Q154.62-2.82 155.65-2.82L155.65-2.82L155.65-2.82Q156.22-2.82 156.74-2.88L156.74-2.88L156.74-2.88Q157.25-2.94 157.44-2.94L157.44-2.94L157.57-2.69L156.99 0.19L156.99 0.19Q156.35 0.13 154.59 0.06L154.59 0.06L154.59 0.06Q152.83 0 150.91 0L150.91 0L150.91 0Q149.18 0 147.04 0.22L147.04 0.22L147.04 0.22Q144.90 0.45 144.26 0.51L144.26 0.51L144.51-2.43L144.51-2.43Q146.50-2.69 147.39-3.46L147.39-3.46L147.39-3.46Q148.29-4.22 148.29-5.63L148.29-5.63L148.29-5.63Q148.29-6.98 147.36-18.11L147.36-18.11L147.36-18.11Q146.43-29.25 146.11-33.28L146.11-33.28L145.79-33.28L133.44 0.77L131.90 1.22ZM194.56-11.01L194.75-10.69L194.75-10.69Q193.66-5.50 193.02 0.06L193.02 0.06L192.70 0.45L192.70 0.45Q179.26 0 173.31 0L173.31 0L173.31 0Q168.58 0 164.42 0.64L164.42 0.64L164.80-2.30L164.80-2.30Q167.68-2.69 168.74-3.81L168.74-3.81L168.74-3.81Q169.79-4.93 169.79-7.68L169.79-7.68L169.86-34.56L169.86-34.56Q169.86-36.61 169.38-37.31L169.38-37.31L169.38-37.31Q168.90-38.02 167.49-38.02L167.49-38.02L165.31-37.89L165.18-38.14L165.63-40.96L165.63-40.96Q172.16-40.77 174.53-40.77L174.53-40.77L174.53-40.77Q182.14-40.77 186.37-40.93L186.37-40.93L186.37-40.93Q190.59-41.09 193.73-41.54L193.73-41.54L193.92-41.15L193.92-41.15Q192.77-36.10 192.45-30.53L192.45-30.53L189.38-30.27L189.50-33.02L189.50-33.02Q189.50-35.26 188.93-36.13L188.93-36.13L188.93-36.13Q188.35-36.99 186.43-37.28L186.43-37.28L186.43-37.28Q184.51-37.57 179.71-37.57L179.71-37.57L179.71-37.57Q177.47-37.57 176.64-37.44L176.64-37.44L176.64-37.44Q175.81-37.31 175.55-36.83L175.55-36.83L175.55-36.83Q175.30-36.35 175.23-35.07L175.23-35.07L174.72-22.66L181.31-22.59L181.31-22.59Q183.81-22.59 189.12-23.30L189.12-23.30L189.38-22.98L188.48-19.20L188.48-19.20Q181.38-19.39 179.52-19.39L179.52-19.39L179.52-19.39Q177.41-19.39 174.59-18.94L174.59-18.94L174.34-6.72L174.34-6.72Q174.34-4.86 174.66-4.13L174.66-4.13L174.66-4.13Q174.98-3.39 175.97-3.14L175.97-3.14L175.97-3.14Q176.96-2.88 179.39-2.88L179.39-2.88L179.39-2.88Q184.77-2.88 187.04-3.39L187.04-3.39L187.04-3.39Q189.31-3.90 190.27-5.44L190.27-5.44L190.27-5.44Q191.23-6.98 191.74-10.69L191.74-10.69L194.56-11.01Z" fill="url(#editing-outline-gradient)"></path></g></g><style>text {
  font-size: 64px;
  font-family: Arial Black;
  dominant-baseline: central;
  text-anchor: middle;
}</style></svg>