<svg id="visual" viewBox="0 0 1920 300" width="1920" height="300" xmlns="http://www.w3.org/2000/svg" xmlns:xlink="http://www.w3.org/1999/xlink" version="1.1"><path d="M0 243L45.7 238.2C91.3 233.3 182.7 223.7 274.2 223.8C365.7 224 457.3 234 548.8 233.7C640.3 233.3 731.7 222.7 823 219.3C914.3 216 1005.7 220 1097 218.8C1188.3 217.7 1279.7 211.3 1371.2 217C1462.7 222.7 1554.3 240.3 1645.8 240C1737.3 239.7 1828.7 221.3 1874.3 212.2L1920 203L1920 301L1874.3 301C1828.7 301 1737.3 301 1645.8 301C1554.3 301 1462.7 301 1371.2 301C1279.7 301 1188.3 301 1097 301C1005.7 301 914.3 301 823 301C731.7 301 640.3 301 548.8 301C457.3 301 365.7 301 274.2 301C182.7 301 91.3 301 45.7 301L0 301Z" fill="#0066FF" stroke-linecap="round" stroke-linejoin="miter"></path></svg>