<svg id="visual" viewBox="0 0 1920 400" width="1920" height="400" xmlns="http://www.w3.org/2000/svg" xmlns:xlink="http://www.w3.org/1999/xlink" version="1.1"><path d="M0 40L64 64.5C128 89 256 138 384 146.7C512 155.3 640 123.7 768 130C896 136.3 1024 180.7 1152 204.5C1280 228.3 1408 231.7 1536 209.5C1664 187.3 1792 139.7 1856 115.8L1920 92L1920 0L1856 0C1792 0 1664 0 1536 0C1408 0 1280 0 1152 0C1024 0 896 0 768 0C640 0 512 0 384 0C256 0 128 0 64 0L0 0Z" fill="#201b82" stroke-linecap="round" stroke-linejoin="miter"></path></svg>