<svg id="visual" viewBox="0 0 1920 400" width="1920" height="400" xmlns="http://www.w3.org/2000/svg" xmlns:xlink="http://www.w3.org/1999/xlink" version="1.1"><path d="M0 80L64 86.3C128 92.7 256 105.3 384 112.3C512 119.3 640 120.7 768 111.8C896 103 1024 84 1152 67C1280 50 1408 35 1536 54.7C1664 74.3 1792 128.7 1856 155.8L1920 183L1920 0L1856 0C1792 0 1664 0 1536 0C1408 0 1280 0 1152 0C1024 0 896 0 768 0C640 0 512 0 384 0C256 0 128 0 64 0L0 0Z" fill="#201b82" stroke-linecap="round" stroke-linejoin="miter"></path></svg>