<svg id="visual" viewBox="0 0 1920 300" width="1920" height="300" xmlns="http://www.w3.org/2000/svg" xmlns:xlink="http://www.w3.org/1999/xlink" version="1.1"><path d="M0 223L45.7 225.5C91.3 228 182.7 233 274.2 238C365.7 243 457.3 248 548.8 249.2C640.3 250.3 731.7 247.7 823 242.5C914.3 237.3 1005.7 229.7 1097 227.2C1188.3 224.7 1279.7 227.3 1371.2 229.7C1462.7 232 1554.3 234 1645.8 230.3C1737.3 226.7 1828.7 217.3 1874.3 212.7L1920 208L1920 301L1874.3 301C1828.7 301 1737.3 301 1645.8 301C1554.3 301 1462.7 301 1371.2 301C1279.7 301 1188.3 301 1097 301C1005.7 301 914.3 301 823 301C731.7 301 640.3 301 548.8 301C457.3 301 365.7 301 274.2 301C182.7 301 91.3 301 45.7 301L0 301Z" fill="#0066FF" stroke-linecap="round" stroke-linejoin="miter"></path></svg>