<svg id="visual" viewBox="0 0 1920 400" width="1920" height="400" xmlns="http://www.w3.org/2000/svg" xmlns:xlink="http://www.w3.org/1999/xlink" version="1.1"><path d="M0 121L64 119.7C128 118.3 256 115.7 384 102.5C512 89.3 640 65.7 768 64.8C896 64 1024 86 1152 113.3C1280 140.7 1408 173.3 1536 164.2C1664 155 1792 104 1856 78.5L1920 53L1920 0L1856 0C1792 0 1664 0 1536 0C1408 0 1280 0 1152 0C1024 0 896 0 768 0C640 0 512 0 384 0C256 0 128 0 64 0L0 0Z" fill="#201b82" stroke-linecap="round" stroke-linejoin="miter"></path></svg>