<svg id="visual" viewBox="0 0 1920 300" width="1920" height="300" xmlns="http://www.w3.org/2000/svg" xmlns:xlink="http://www.w3.org/1999/xlink" version="1.1"><path d="M0 210L45.7 211C91.3 212 182.7 214 274.2 221.3C365.7 228.7 457.3 241.3 548.8 236.5C640.3 231.7 731.7 209.3 823 204.3C914.3 199.3 1005.7 211.7 1097 214C1188.3 216.3 1279.7 208.7 1371.2 208.7C1462.7 208.7 1554.3 216.3 1645.8 214C1737.3 211.7 1828.7 199.3 1874.3 193.2L1920 187L1920 301L1874.3 301C1828.7 301 1737.3 301 1645.8 301C1554.3 301 1462.7 301 1371.2 301C1279.7 301 1188.3 301 1097 301C1005.7 301 914.3 301 823 301C731.7 301 640.3 301 548.8 301C457.3 301 365.7 301 274.2 301C182.7 301 91.3 301 45.7 301L0 301Z" fill="#0066FF" stroke-linecap="round" stroke-linejoin="miter"></path></svg>